<?xml version="1.0" encoding="UTF-8" standalone="no"?>
<!DOCTYPE svg PUBLIC "-//W3C//DTD SVG 1.1//EN"
 "http://www.w3.org/Graphics/SVG/1.1/DTD/svg11.dtd">
<!-- Generated by graphviz version 3.0.0 (20220226.1711)
 -->
<!-- Title: dependencies Pages: 1 -->
<svg width="813pt" height="174pt"
 viewBox="0.00 0.00 813.00 173.80" xmlns="http://www.w3.org/2000/svg" xmlns:xlink="http://www.w3.org/1999/xlink">
<g id="graph0" class="graph" transform="scale(1 1) rotate(0) translate(4 169.8)">
<title>dependencies</title>
<polygon fill="white" stroke="transparent" points="-4,4 -4,-169.8 809,-169.8 809,4 -4,4"/>
<text text-anchor="middle" x="402.5" y="-8.2" font-family="sans-serif" font-size="14.00">dependencies</text>
<g id="clust1" class="cluster">
<title>cluster_SearchClientModule</title>
<polygon fill="none" stroke="black" stroke-dasharray="1,5" points="8,-32.8 8,-157.8 797,-157.8 797,-32.8 8,-32.8"/>
</g>
<g id="clust6" class="cluster">
<title>cluster_SearchClientModule_imports</title>
<polygon fill="none" stroke="black" points="472,-40.8 472,-92.8 789,-92.8 789,-40.8 472,-40.8"/>
</g>
<g id="clust2" class="cluster">
<title>cluster_SearchClientModule_declarations</title>
<polygon fill="none" stroke="black" points="16,-40.8 16,-92.8 464,-92.8 464,-40.8 16,-40.8"/>
</g>
<!-- ResultsComponent -->
<g id="node1" class="node">
<title>ResultsComponent</title>
<polygon fill="#ffffb3" stroke="black" points="456.06,-84.8 333.94,-84.8 333.94,-48.8 456.06,-48.8 456.06,-84.8"/>
<text text-anchor="middle" x="395" y="-62.6" font-family="Times,serif" font-size="14.00">ResultsComponent</text>
</g>
<!-- SearchClientModule -->
<g id="node4" class="node">
<title>SearchClientModule</title>
<polygon fill="#8dd3c7" stroke="black" points="460.86,-149.8 457.86,-153.8 436.86,-153.8 433.86,-149.8 329.14,-149.8 329.14,-113.8 460.86,-113.8 460.86,-149.8"/>
<text text-anchor="middle" x="395" y="-127.6" font-family="Times,serif" font-size="14.00">SearchClientModule</text>
</g>
<!-- ResultsComponent&#45;&gt;SearchClientModule -->
<g id="edge1" class="edge">
<title>ResultsComponent&#45;&gt;SearchClientModule</title>
<path fill="none" stroke="black" d="M395,-84.91C395,-84.91 395,-103.79 395,-103.79"/>
<polygon fill="black" stroke="black" points="391.5,-103.79 395,-113.79 398.5,-103.79 391.5,-103.79"/>
</g>
<!-- SearchClientComponent -->
<g id="node2" class="node">
<title>SearchClientComponent</title>
<polygon fill="#ffffb3" stroke="black" points="315.64,-84.8 162.36,-84.8 162.36,-48.8 315.64,-48.8 315.64,-84.8"/>
<text text-anchor="middle" x="239" y="-62.6" font-family="Times,serif" font-size="14.00">SearchClientComponent</text>
</g>
<!-- SearchClientComponent&#45;&gt;SearchClientModule -->
<g id="edge2" class="edge">
<title>SearchClientComponent&#45;&gt;SearchClientModule</title>
<path fill="none" stroke="black" d="M239,-84.82C239,-102.17 239,-125.8 239,-125.8 239,-125.8 318.84,-125.8 318.84,-125.8"/>
<polygon fill="black" stroke="black" points="318.84,-129.3 328.84,-125.8 318.84,-122.3 318.84,-129.3"/>
</g>
<!-- SearchComponent -->
<g id="node3" class="node">
<title>SearchComponent</title>
<polygon fill="#ffffb3" stroke="black" points="143.92,-84.8 24.08,-84.8 24.08,-48.8 143.92,-48.8 143.92,-84.8"/>
<text text-anchor="middle" x="84" y="-62.6" font-family="Times,serif" font-size="14.00">SearchComponent</text>
</g>
<!-- SearchComponent&#45;&gt;SearchClientModule -->
<g id="edge3" class="edge">
<title>SearchComponent&#45;&gt;SearchClientModule</title>
<path fill="none" stroke="black" d="M84,-85.08C84,-106.12 84,-137.8 84,-137.8 84,-137.8 319.04,-137.8 319.04,-137.8"/>
<polygon fill="black" stroke="black" points="319.04,-141.3 329.04,-137.8 319.04,-134.3 319.04,-141.3"/>
</g>
<!-- AbeStateTrackerModule -->
<g id="node5" class="node">
<title>AbeStateTrackerModule</title>
<polygon fill="#8dd3c7" stroke="black" points="781.39,-84.8 778.39,-88.8 757.39,-88.8 754.39,-84.8 626.61,-84.8 626.61,-48.8 781.39,-48.8 781.39,-84.8"/>
<text text-anchor="middle" x="704" y="-62.6" font-family="Times,serif" font-size="14.00">AbeStateTrackerModule</text>
</g>
<!-- AbeStateTrackerModule&#45;&gt;SearchClientModule -->
<g id="edge4" class="edge">
<title>AbeStateTrackerModule&#45;&gt;SearchClientModule</title>
<path fill="none" stroke="black" d="M704,-85.08C704,-106.12 704,-137.8 704,-137.8 704,-137.8 470.91,-137.8 470.91,-137.8"/>
<polygon fill="black" stroke="black" points="470.91,-134.3 460.91,-137.8 470.91,-141.3 470.91,-134.3"/>
</g>
<!-- AppRoutingModule -->
<g id="node6" class="node">
<title>AppRoutingModule</title>
<polygon fill="#8dd3c7" stroke="black" points="608.28,-84.8 605.28,-88.8 584.28,-88.8 581.28,-84.8 479.72,-84.8 479.72,-48.8 608.28,-48.8 608.28,-84.8"/>
<text text-anchor="middle" x="544" y="-62.6" font-family="Times,serif" font-size="14.00">AppRoutingModule</text>
</g>
<!-- AppRoutingModule&#45;&gt;SearchClientModule -->
<g id="edge5" class="edge">
<title>AppRoutingModule&#45;&gt;SearchClientModule</title>
<path fill="none" stroke="black" d="M544,-84.82C544,-102.17 544,-125.8 544,-125.8 544,-125.8 471.22,-125.8 471.22,-125.8"/>
<polygon fill="black" stroke="black" points="471.22,-122.3 461.22,-125.8 471.22,-129.3 471.22,-122.3"/>
</g>
</g>
</svg>
