<?xml version="1.0" encoding="UTF-8" standalone="no"?>
<!DOCTYPE svg PUBLIC "-//W3C//DTD SVG 1.1//EN"
 "http://www.w3.org/Graphics/SVG/1.1/DTD/svg11.dtd">
<!-- Generated by graphviz version 3.0.0 (20220226.1711)
 -->
<!-- Title: dependencies Pages: 1 -->
<svg width="830pt" height="174pt"
 viewBox="0.00 0.00 830.00 173.80" xmlns="http://www.w3.org/2000/svg" xmlns:xlink="http://www.w3.org/1999/xlink">
<g id="graph0" class="graph" transform="scale(1 1) rotate(0) translate(4 169.8)">
<title>dependencies</title>
<polygon fill="white" stroke="transparent" points="-4,4 -4,-169.8 826,-169.8 826,4 -4,4"/>
<text text-anchor="middle" x="411" y="-8.2" font-family="sans-serif" font-size="14.00">dependencies</text>
<g id="clust1" class="cluster">
<title>cluster_PagesModule</title>
<polygon fill="none" stroke="black" stroke-dasharray="1,5" points="8,-32.8 8,-157.8 814,-157.8 814,-32.8 8,-32.8"/>
</g>
<g id="clust2" class="cluster">
<title>cluster_PagesModule_declarations</title>
<polygon fill="none" stroke="black" points="16,-40.8 16,-92.8 806,-92.8 806,-40.8 16,-40.8"/>
</g>
<!-- ClaimoverviewComponent -->
<g id="node1" class="node">
<title>ClaimoverviewComponent</title>
<polygon fill="#ffffb3" stroke="black" points="797.64,-84.8 630.36,-84.8 630.36,-48.8 797.64,-48.8 797.64,-84.8"/>
<text text-anchor="middle" x="714" y="-62.6" font-family="Times,serif" font-size="14.00">ClaimoverviewComponent</text>
</g>
<!-- PagesModule -->
<g id="node6" class="node">
<title>PagesModule</title>
<polygon fill="#8dd3c7" stroke="black" points="453.21,-149.8 450.21,-153.8 429.21,-153.8 426.21,-149.8 360.79,-149.8 360.79,-113.8 453.21,-113.8 453.21,-149.8"/>
<text text-anchor="middle" x="407" y="-127.6" font-family="Times,serif" font-size="14.00">PagesModule</text>
</g>
<!-- ClaimoverviewComponent&#45;&gt;PagesModule -->
<g id="edge1" class="edge">
<title>ClaimoverviewComponent&#45;&gt;PagesModule</title>
<path fill="none" stroke="black" d="M714,-85.08C714,-106.12 714,-137.8 714,-137.8 714,-137.8 463.29,-137.8 463.29,-137.8"/>
<polygon fill="black" stroke="black" points="463.29,-134.3 453.29,-137.8 463.29,-141.3 463.29,-134.3"/>
</g>
<!-- ClosureComponent -->
<g id="node2" class="node">
<title>ClosureComponent</title>
<polygon fill="#ffffb3" stroke="black" points="612.38,-84.8 487.62,-84.8 487.62,-48.8 612.38,-48.8 612.38,-84.8"/>
<text text-anchor="middle" x="550" y="-62.6" font-family="Times,serif" font-size="14.00">ClosureComponent</text>
</g>
<!-- ClosureComponent&#45;&gt;PagesModule -->
<g id="edge2" class="edge">
<title>ClosureComponent&#45;&gt;PagesModule</title>
<path fill="none" stroke="black" d="M550,-84.82C550,-102.17 550,-125.8 550,-125.8 550,-125.8 463.43,-125.8 463.43,-125.8"/>
<polygon fill="black" stroke="black" points="463.43,-122.3 453.43,-125.8 463.43,-129.3 463.43,-122.3"/>
</g>
<!-- ConsultComponent -->
<g id="node3" class="node">
<title>ConsultComponent</title>
<polygon fill="#ffffb3" stroke="black" points="469.4,-84.8 344.6,-84.8 344.6,-48.8 469.4,-48.8 469.4,-84.8"/>
<text text-anchor="middle" x="407" y="-62.6" font-family="Times,serif" font-size="14.00">ConsultComponent</text>
</g>
<!-- ConsultComponent&#45;&gt;PagesModule -->
<g id="edge3" class="edge">
<title>ConsultComponent&#45;&gt;PagesModule</title>
<path fill="none" stroke="black" d="M407,-84.91C407,-84.91 407,-103.79 407,-103.79"/>
<polygon fill="black" stroke="black" points="403.5,-103.79 407,-113.79 410.5,-103.79 403.5,-103.79"/>
</g>
<!-- DeclarationComponent -->
<g id="node4" class="node">
<title>DeclarationComponent</title>
<polygon fill="#ffffb3" stroke="black" points="326.13,-84.8 179.87,-84.8 179.87,-48.8 326.13,-48.8 326.13,-84.8"/>
<text text-anchor="middle" x="253" y="-62.6" font-family="Times,serif" font-size="14.00">DeclarationComponent</text>
</g>
<!-- DeclarationComponent&#45;&gt;PagesModule -->
<g id="edge4" class="edge">
<title>DeclarationComponent&#45;&gt;PagesModule</title>
<path fill="none" stroke="black" d="M253,-84.82C253,-102.17 253,-125.8 253,-125.8 253,-125.8 350.79,-125.8 350.79,-125.8"/>
<polygon fill="black" stroke="black" points="350.79,-129.3 360.79,-125.8 350.79,-122.3 350.79,-129.3"/>
</g>
<!-- ExtensionComponent -->
<g id="node5" class="node">
<title>ExtensionComponent</title>
<polygon fill="#ffffb3" stroke="black" points="161.82,-84.8 24.18,-84.8 24.18,-48.8 161.82,-48.8 161.82,-84.8"/>
<text text-anchor="middle" x="93" y="-62.6" font-family="Times,serif" font-size="14.00">ExtensionComponent</text>
</g>
<!-- ExtensionComponent&#45;&gt;PagesModule -->
<g id="edge5" class="edge">
<title>ExtensionComponent&#45;&gt;PagesModule</title>
<path fill="none" stroke="black" d="M93,-85.08C93,-106.12 93,-137.8 93,-137.8 93,-137.8 350.67,-137.8 350.67,-137.8"/>
<polygon fill="black" stroke="black" points="350.67,-141.3 360.67,-137.8 350.67,-134.3 350.67,-141.3"/>
</g>
</g>
</svg>
