<?xml version="1.0" encoding="UTF-8" standalone="no"?>
<!DOCTYPE svg PUBLIC "-//W3C//DTD SVG 1.1//EN"
 "http://www.w3.org/Graphics/SVG/1.1/DTD/svg11.dtd">
<!-- Generated by graphviz version 3.0.0 (20220226.1711)
 -->
<!-- Title: dependencies Pages: 1 -->
<svg width="2028pt" height="391pt"
 viewBox="0.00 0.00 2028.00 390.80" xmlns="http://www.w3.org/2000/svg" xmlns:xlink="http://www.w3.org/1999/xlink">
<g id="graph0" class="graph" transform="scale(1 1) rotate(0) translate(4 386.8)">
<title>dependencies</title>
<polygon fill="white" stroke="transparent" points="-4,4 -4,-386.8 2024,-386.8 2024,4 -4,4"/>
<text text-anchor="middle" x="1010" y="-8.2" font-family="sans-serif" font-size="14.00">dependencies</text>
<g id="clust1" class="cluster">
<title>cluster_AbeStateTrackerModule</title>
<polygon fill="none" stroke="black" stroke-dasharray="1,5" points="8,-32.8 8,-244.8 206,-244.8 206,-32.8 8,-32.8"/>
</g>
<g id="clust2" class="cluster">
<title>cluster_AbeStateTrackerModule_declarations</title>
<polygon fill="none" stroke="black" points="19,-40.8 19,-92.8 197,-92.8 197,-40.8 19,-40.8"/>
</g>
<g id="clust5" class="cluster">
<title>cluster_AbeStateTrackerModule_exports</title>
<polygon fill="none" stroke="black" points="16,-184.8 16,-236.8 198,-236.8 198,-184.8 16,-184.8"/>
</g>
<g id="clust8" class="cluster">
<title>cluster_AppModule</title>
<polygon fill="none" stroke="black" stroke-dasharray="1,5" points="622,-108.8 622,-374.8 1540,-374.8 1540,-108.8 622,-108.8"/>
</g>
<g id="clust9" class="cluster">
<title>cluster_AppModule_declarations</title>
<polygon fill="none" stroke="black" points="1134,-184.8 1134,-236.8 1532,-236.8 1532,-184.8 1134,-184.8"/>
</g>
<g id="clust13" class="cluster">
<title>cluster_AppModule_imports</title>
<polygon fill="none" stroke="black" points="630,-116.8 630,-236.8 1126,-236.8 1126,-116.8 630,-116.8"/>
</g>
<g id="clust15" class="cluster">
<title>cluster_AppModule_bootstrap</title>
<polygon fill="none" stroke="black" points="947,-314.8 947,-366.8 1071,-366.8 1071,-314.8 947,-314.8"/>
</g>
<g id="clust23" class="cluster">
<title>cluster_AuthModule</title>
<polygon fill="none" stroke="black" stroke-dasharray="1,5" points="214,-32.8 214,-100.8 682,-100.8 682,-32.8 214,-32.8"/>
</g>
<g id="clust28" class="cluster">
<title>cluster_AuthModule_providers</title>
<polygon fill="none" stroke="black" points="222,-40.8 222,-92.8 674,-92.8 674,-40.8 222,-40.8"/>
</g>
<g id="clust35" class="cluster">
<title>cluster_PagesModule</title>
<polygon fill="none" stroke="black" stroke-dasharray="1,5" points="690,-32.8 690,-100.8 1495,-100.8 1495,-32.8 690,-32.8"/>
</g>
<g id="clust36" class="cluster">
<title>cluster_PagesModule_declarations</title>
<polygon fill="none" stroke="black" points="698,-40.8 698,-92.8 1487,-92.8 1487,-40.8 698,-40.8"/>
</g>
<g id="clust46" class="cluster">
<title>cluster_SearchClientModule</title>
<polygon fill="none" stroke="black" stroke-dasharray="1,5" points="1548,-108.8 1548,-176.8 2012,-176.8 2012,-108.8 1548,-108.8"/>
</g>
<g id="clust47" class="cluster">
<title>cluster_SearchClientModule_declarations</title>
<polygon fill="none" stroke="black" points="1556,-116.8 1556,-168.8 2004,-168.8 2004,-116.8 1556,-116.8"/>
</g>
<!-- AbeStateTrackerDirective -->
<g id="node1" class="node">
<title>AbeStateTrackerDirective</title>
<polygon fill="#ffffb3" stroke="black" points="189.42,-84.8 26.58,-84.8 26.58,-48.8 189.42,-48.8 189.42,-84.8"/>
<text text-anchor="middle" x="108" y="-62.6" font-family="Times,serif" font-size="14.00">AbeStateTrackerDirective</text>
</g>
<!-- AbeStateTrackerModule -->
<g id="node2" class="node">
<title>AbeStateTrackerModule</title>
<polygon fill="#8dd3c7" stroke="black" points="185.39,-160.8 182.39,-164.8 161.39,-164.8 158.39,-160.8 30.61,-160.8 30.61,-124.8 185.39,-124.8 185.39,-160.8"/>
<text text-anchor="middle" x="108" y="-138.6" font-family="Times,serif" font-size="14.00">AbeStateTrackerModule</text>
</g>
<!-- AbeStateTrackerDirective&#45;&gt;AbeStateTrackerModule -->
<g id="edge1" class="edge">
<title>AbeStateTrackerDirective&#45;&gt;AbeStateTrackerModule</title>
<path fill="none" stroke="black" d="M108,-84.81C108,-84.81 108,-114.65 108,-114.65"/>
<polygon fill="black" stroke="black" points="104.5,-114.65 108,-124.65 111.5,-114.65 104.5,-114.65"/>
</g>
<!-- AbeStateTrackerDirective  -->
<g id="node3" class="node">
<title>AbeStateTrackerDirective </title>
<polygon fill="#fb8072" stroke="black" points="190.42,-228.8 23.58,-228.8 23.58,-192.8 190.42,-192.8 190.42,-228.8"/>
<text text-anchor="middle" x="107" y="-206.6" font-family="Times,serif" font-size="14.00">AbeStateTrackerDirective </text>
</g>
<!-- AbeStateTrackerModule&#45;&gt;AbeStateTrackerDirective  -->
<g id="edge2" class="edge">
<title>AbeStateTrackerModule&#45;&gt;AbeStateTrackerDirective </title>
<path fill="none" stroke="black" stroke-dasharray="5,2" d="M108,-161.02C108,-161.02 108,-182.53 108,-182.53"/>
<polygon fill="black" stroke="black" points="104.5,-182.53 108,-192.53 111.5,-182.53 104.5,-182.53"/>
</g>
<!-- SearchClientModule -->
<g id="node12" class="node">
<title>SearchClientModule</title>
<polygon fill="#8dd3c7" stroke="black" points="1117.86,-228.8 1114.86,-232.8 1093.86,-232.8 1090.86,-228.8 986.14,-228.8 986.14,-192.8 1117.86,-192.8 1117.86,-228.8"/>
<text text-anchor="middle" x="1052" y="-206.6" font-family="Times,serif" font-size="14.00">SearchClientModule</text>
</g>
<!-- AbeStateTrackerModule&#45;&gt;SearchClientModule -->
<g id="edge23" class="edge">
<title>AbeStateTrackerModule&#45;&gt;SearchClientModule</title>
<path fill="none" stroke="black" d="M185.43,-133.8C199.68,-133.8 210.16,-133.8 210.16,-133.8 210.16,-133.8 210.16,-210.8 210.16,-210.8 210.16,-210.8 975.94,-210.8 975.94,-210.8"/>
<polygon fill="black" stroke="black" points="975.94,-214.3 985.94,-210.8 975.94,-207.3 975.94,-214.3"/>
</g>
<!-- AppComponent -->
<g id="node4" class="node">
<title>AppComponent</title>
<polygon fill="#ffffb3" stroke="black" points="1523.94,-228.8 1418.06,-228.8 1418.06,-192.8 1523.94,-192.8 1523.94,-228.8"/>
<text text-anchor="middle" x="1471" y="-206.6" font-family="Times,serif" font-size="14.00">AppComponent</text>
</g>
<!-- AppModule -->
<g id="node7" class="node">
<title>AppModule</title>
<polygon fill="#8dd3c7" stroke="black" points="1050.66,-293.8 1047.66,-297.8 1026.66,-297.8 1023.66,-293.8 967.34,-293.8 967.34,-257.8 1050.66,-257.8 1050.66,-293.8"/>
<text text-anchor="middle" x="1009" y="-271.6" font-family="Times,serif" font-size="14.00">AppModule</text>
</g>
<!-- AppComponent&#45;&gt;AppModule -->
<g id="edge3" class="edge">
<title>AppComponent&#45;&gt;AppModule</title>
<path fill="none" stroke="black" d="M1471,-229.09C1471,-251.01 1471,-284.8 1471,-284.8 1471,-284.8 1060.81,-284.8 1060.81,-284.8"/>
<polygon fill="black" stroke="black" points="1060.81,-281.3 1050.81,-284.8 1060.81,-288.3 1060.81,-281.3"/>
</g>
<!-- FooterComponent -->
<g id="node5" class="node">
<title>FooterComponent</title>
<polygon fill="#ffffb3" stroke="black" points="1399.88,-228.8 1282.12,-228.8 1282.12,-192.8 1399.88,-192.8 1399.88,-228.8"/>
<text text-anchor="middle" x="1341" y="-206.6" font-family="Times,serif" font-size="14.00">FooterComponent</text>
</g>
<!-- FooterComponent&#45;&gt;AppModule -->
<g id="edge4" class="edge">
<title>FooterComponent&#45;&gt;AppModule</title>
<path fill="none" stroke="black" d="M1341,-228.91C1341,-248.14 1341,-275.8 1341,-275.8 1341,-275.8 1060.71,-275.8 1060.71,-275.8"/>
<polygon fill="black" stroke="black" points="1060.71,-272.3 1050.71,-275.8 1060.71,-279.3 1060.71,-272.3"/>
</g>
<!-- HeaderComponent -->
<g id="node6" class="node">
<title>HeaderComponent</title>
<polygon fill="#ffffb3" stroke="black" points="1263.75,-228.8 1142.25,-228.8 1142.25,-192.8 1263.75,-192.8 1263.75,-228.8"/>
<text text-anchor="middle" x="1203" y="-206.6" font-family="Times,serif" font-size="14.00">HeaderComponent</text>
</g>
<!-- HeaderComponent&#45;&gt;AppModule -->
<g id="edge5" class="edge">
<title>HeaderComponent&#45;&gt;AppModule</title>
<path fill="none" stroke="black" d="M1203,-228.83C1203,-245.2 1203,-266.8 1203,-266.8 1203,-266.8 1061.1,-266.8 1061.1,-266.8"/>
<polygon fill="black" stroke="black" points="1061.1,-263.3 1051.1,-266.8 1061.1,-270.3 1061.1,-263.3"/>
</g>
<!-- AppComponent  -->
<g id="node13" class="node">
<title>AppComponent </title>
<polygon fill="#80b1d3" stroke="black" points="1063.44,-358.8 954.56,-358.8 954.56,-322.8 1063.44,-322.8 1063.44,-358.8"/>
<text text-anchor="middle" x="1009" y="-336.6" font-family="Times,serif" font-size="14.00">AppComponent </text>
</g>
<!-- AppModule&#45;&gt;AppComponent  -->
<g id="edge11" class="edge">
<title>AppModule&#45;&gt;AppComponent </title>
<path fill="none" stroke="black" stroke-dasharray="1,5" d="M1009,-293.91C1009,-293.91 1009,-312.79 1009,-312.79"/>
<polygon fill="black" stroke="black" points="1005.5,-312.79 1009,-322.79 1012.5,-312.79 1005.5,-312.79"/>
</g>
<!-- AppRoutingModule -->
<g id="node8" class="node">
<title>AppRoutingModule</title>
<polygon fill="#8dd3c7" stroke="black" points="1118.28,-160.8 1115.28,-164.8 1094.28,-164.8 1091.28,-160.8 989.72,-160.8 989.72,-124.8 1118.28,-124.8 1118.28,-160.8"/>
<text text-anchor="middle" x="1054" y="-138.6" font-family="Times,serif" font-size="14.00">AppRoutingModule</text>
</g>
<!-- AppRoutingModule&#45;&gt;AppModule -->
<g id="edge6" class="edge">
<title>AppRoutingModule&#45;&gt;AppModule</title>
<path fill="none" stroke="black" d="M989.59,-142.8C983.08,-142.8 978.81,-142.8 978.81,-142.8 978.81,-142.8 978.81,-247.59 978.81,-247.59"/>
<polygon fill="black" stroke="black" points="975.31,-247.59 978.81,-257.59 982.31,-247.59 975.31,-247.59"/>
</g>
<!-- AppRoutingModule&#45;&gt;SearchClientModule -->
<g id="edge24" class="edge">
<title>AppRoutingModule&#45;&gt;SearchClientModule</title>
<path fill="none" stroke="black" d="M1021.69,-161.02C1021.69,-161.02 1021.69,-182.53 1021.69,-182.53"/>
<polygon fill="black" stroke="black" points="1018.19,-182.53 1021.69,-192.53 1025.19,-182.53 1018.19,-182.53"/>
</g>
<!-- AuthModule -->
<g id="node9" class="node">
<title>AuthModule</title>
<polygon fill="#8dd3c7" stroke="black" points="725.55,-160.8 722.55,-164.8 701.55,-164.8 698.55,-160.8 638.45,-160.8 638.45,-124.8 725.55,-124.8 725.55,-160.8"/>
<text text-anchor="middle" x="682" y="-138.6" font-family="Times,serif" font-size="14.00">AuthModule</text>
</g>
<!-- AuthModule&#45;&gt;AppModule -->
<g id="edge7" class="edge">
<title>AuthModule&#45;&gt;AppModule</title>
<path fill="none" stroke="black" d="M682,-161.01C682,-197.44 682,-275.8 682,-275.8 682,-275.8 957.25,-275.8 957.25,-275.8"/>
<polygon fill="black" stroke="black" points="957.25,-279.3 967.25,-275.8 957.25,-272.3 957.25,-279.3"/>
</g>
<!-- FormUtilsModule -->
<g id="node10" class="node">
<title>FormUtilsModule</title>
<polygon fill="#8dd3c7" stroke="black" points="971.62,-160.8 968.62,-164.8 947.62,-164.8 944.62,-160.8 854.38,-160.8 854.38,-124.8 971.62,-124.8 971.62,-160.8"/>
<text text-anchor="middle" x="913" y="-138.6" font-family="Times,serif" font-size="14.00">FormUtilsModule</text>
</g>
<!-- FormUtilsModule&#45;&gt;AppModule -->
<g id="edge8" class="edge">
<title>FormUtilsModule&#45;&gt;AppModule</title>
<path fill="none" stroke="black" d="M960.85,-161.07C960.85,-199.43 960.85,-284.8 960.85,-284.8 960.85,-284.8 961.48,-284.8 961.48,-284.8"/>
<polygon fill="black" stroke="black" points="957.14,-288.3 967.14,-284.8 957.14,-281.3 957.14,-288.3"/>
</g>
<!-- PagesModule -->
<g id="node11" class="node">
<title>PagesModule</title>
<polygon fill="#8dd3c7" stroke="black" points="836.21,-160.8 833.21,-164.8 812.21,-164.8 809.21,-160.8 743.79,-160.8 743.79,-124.8 836.21,-124.8 836.21,-160.8"/>
<text text-anchor="middle" x="790" y="-138.6" font-family="Times,serif" font-size="14.00">PagesModule</text>
</g>
<!-- PagesModule&#45;&gt;AppModule -->
<g id="edge9" class="edge">
<title>PagesModule&#45;&gt;AppModule</title>
<path fill="none" stroke="black" d="M790,-160.83C790,-195.22 790,-266.8 790,-266.8 790,-266.8 957.29,-266.8 957.29,-266.8"/>
<polygon fill="black" stroke="black" points="957.29,-270.3 967.29,-266.8 957.29,-263.3 957.29,-270.3"/>
</g>
<!-- SearchClientModule&#45;&gt;AppModule -->
<g id="edge10" class="edge">
<title>SearchClientModule&#45;&gt;AppModule</title>
<path fill="none" stroke="black" d="M1018.45,-228.91C1018.45,-228.91 1018.45,-247.79 1018.45,-247.79"/>
<polygon fill="black" stroke="black" points="1014.95,-247.79 1018.45,-257.79 1021.95,-247.79 1014.95,-247.79"/>
</g>
<!-- AuthInterceptor -->
<g id="node14" class="node">
<title>AuthInterceptor</title>
<ellipse fill="#fdb462" stroke="black" cx="593" cy="-66.8" rx="72.92" ry="18"/>
<text text-anchor="middle" x="593" y="-62.6" font-family="Times,serif" font-size="14.00">AuthInterceptor</text>
</g>
<!-- AuthInterceptor&#45;&gt;AuthModule -->
<g id="edge12" class="edge">
<title>AuthInterceptor&#45;&gt;AuthModule</title>
<path fill="none" stroke="black" d="M651.97,-77.37C651.97,-77.37 651.97,-114.73 651.97,-114.73"/>
<polygon fill="black" stroke="black" points="648.47,-114.73 651.97,-124.73 655.47,-114.73 648.47,-114.73"/>
</g>
<!-- AuthService -->
<g id="node15" class="node">
<title>AuthService</title>
<ellipse fill="#fdb462" stroke="black" cx="443" cy="-66.8" rx="59.11" ry="18"/>
<text text-anchor="middle" x="443" y="-62.6" font-family="Times,serif" font-size="14.00">AuthService</text>
</g>
<!-- AuthService&#45;&gt;AuthModule -->
<g id="edge13" class="edge">
<title>AuthService&#45;&gt;AuthModule</title>
<path fill="none" stroke="black" d="M443,-84.81C443,-107.29 443,-142.8 443,-142.8 443,-142.8 628.44,-142.8 628.44,-142.8"/>
<polygon fill="black" stroke="black" points="628.44,-146.3 638.44,-142.8 628.44,-139.3 628.44,-146.3"/>
</g>
<!-- CookieService -->
<g id="node16" class="node">
<title>CookieService</title>
<ellipse fill="#fdb462" stroke="black" cx="298" cy="-66.8" rx="67.78" ry="18"/>
<text text-anchor="middle" x="298" y="-62.6" font-family="Times,serif" font-size="14.00">CookieService</text>
</g>
<!-- CookieService&#45;&gt;AuthModule -->
<g id="edge14" class="edge">
<title>CookieService&#45;&gt;AuthModule</title>
<path fill="none" stroke="black" d="M298,-84.83C298,-109.78 298,-151.8 298,-151.8 298,-151.8 628.32,-151.8 628.32,-151.8"/>
<polygon fill="black" stroke="black" points="628.32,-155.3 638.32,-151.8 628.32,-148.3 628.32,-155.3"/>
</g>
<!-- ClaimoverviewComponent -->
<g id="node17" class="node">
<title>ClaimoverviewComponent</title>
<polygon fill="#ffffb3" stroke="black" points="873.64,-84.8 706.36,-84.8 706.36,-48.8 873.64,-48.8 873.64,-84.8"/>
<text text-anchor="middle" x="790" y="-62.6" font-family="Times,serif" font-size="14.00">ClaimoverviewComponent</text>
</g>
<!-- ClaimoverviewComponent&#45;&gt;PagesModule -->
<g id="edge15" class="edge">
<title>ClaimoverviewComponent&#45;&gt;PagesModule</title>
<path fill="none" stroke="black" d="M759.26,-84.81C759.26,-84.81 759.26,-114.65 759.26,-114.65"/>
<polygon fill="black" stroke="black" points="755.76,-114.65 759.26,-124.65 762.76,-114.65 755.76,-114.65"/>
</g>
<!-- ClosureComponent -->
<g id="node18" class="node">
<title>ClosureComponent</title>
<polygon fill="#ffffb3" stroke="black" points="1479.38,-84.8 1354.62,-84.8 1354.62,-48.8 1479.38,-48.8 1479.38,-84.8"/>
<text text-anchor="middle" x="1417" y="-62.6" font-family="Times,serif" font-size="14.00">ClosureComponent</text>
</g>
<!-- ClosureComponent&#45;&gt;PagesModule -->
<g id="edge16" class="edge">
<title>ClosureComponent&#45;&gt;PagesModule</title>
<path fill="none" stroke="black" d="M1377.25,-84.85C1377.25,-99.17 1377.25,-116.8 1377.25,-116.8 1377.25,-116.8 820.74,-116.8 820.74,-116.8 820.74,-116.8 820.74,-117.59 820.74,-117.59"/>
<polygon fill="black" stroke="black" points="817.24,-114.74 820.74,-124.74 824.24,-114.74 817.24,-114.74"/>
</g>
<!-- ConsultComponent -->
<g id="node19" class="node">
<title>ConsultComponent</title>
<polygon fill="#ffffb3" stroke="black" points="1336.4,-84.8 1211.6,-84.8 1211.6,-48.8 1336.4,-48.8 1336.4,-84.8"/>
<text text-anchor="middle" x="1274" y="-62.6" font-family="Times,serif" font-size="14.00">ConsultComponent</text>
</g>
<!-- ConsultComponent&#45;&gt;PagesModule -->
<g id="edge17" class="edge">
<title>ConsultComponent&#45;&gt;PagesModule</title>
<path fill="none" stroke="black" d="M1237.71,-84.86C1237.71,-96.24 1237.71,-108.8 1237.71,-108.8 1237.71,-108.8 805.37,-108.8 805.37,-108.8 805.37,-108.8 805.37,-114.61 805.37,-114.61"/>
<polygon fill="black" stroke="black" points="801.87,-114.61 805.37,-124.61 808.87,-114.61 801.87,-114.61"/>
</g>
<!-- DeclarationComponent -->
<g id="node20" class="node">
<title>DeclarationComponent</title>
<polygon fill="#ffffb3" stroke="black" points="1193.13,-84.8 1046.87,-84.8 1046.87,-48.8 1193.13,-48.8 1193.13,-84.8"/>
<text text-anchor="middle" x="1120" y="-62.6" font-family="Times,serif" font-size="14.00">DeclarationComponent</text>
</g>
<!-- DeclarationComponent&#45;&gt;PagesModule -->
<g id="edge18" class="edge">
<title>DeclarationComponent&#45;&gt;PagesModule</title>
<path fill="none" stroke="black" d="M1082.54,-84.99C1082.54,-93.08 1082.54,-100.8 1082.54,-100.8 1082.54,-100.8 790,-100.8 790,-100.8 790,-100.8 790,-114.74 790,-114.74"/>
<polygon fill="black" stroke="black" points="786.5,-114.74 790,-124.74 793.5,-114.74 786.5,-114.74"/>
</g>
<!-- ExtensionComponent -->
<g id="node21" class="node">
<title>ExtensionComponent</title>
<polygon fill="#ffffb3" stroke="black" points="1028.82,-84.8 891.18,-84.8 891.18,-48.8 1028.82,-48.8 1028.82,-84.8"/>
<text text-anchor="middle" x="960" y="-62.6" font-family="Times,serif" font-size="14.00">ExtensionComponent</text>
</g>
<!-- ExtensionComponent&#45;&gt;PagesModule -->
<g id="edge19" class="edge">
<title>ExtensionComponent&#45;&gt;PagesModule</title>
<path fill="none" stroke="black" d="M931.45,-84.86C931.45,-89.29 931.45,-92.8 931.45,-92.8 931.45,-92.8 774.63,-92.8 774.63,-92.8 774.63,-92.8 774.63,-114.75 774.63,-114.75"/>
<polygon fill="black" stroke="black" points="771.13,-114.75 774.63,-124.75 778.13,-114.75 771.13,-114.75"/>
</g>
<!-- ResultsComponent -->
<g id="node22" class="node">
<title>ResultsComponent</title>
<polygon fill="#ffffb3" stroke="black" points="1686.06,-160.8 1563.94,-160.8 1563.94,-124.8 1686.06,-124.8 1686.06,-160.8"/>
<text text-anchor="middle" x="1625" y="-138.6" font-family="Times,serif" font-size="14.00">ResultsComponent</text>
</g>
<!-- ResultsComponent&#45;&gt;SearchClientModule -->
<g id="edge20" class="edge">
<title>ResultsComponent&#45;&gt;SearchClientModule</title>
<path fill="none" stroke="black" d="M1563.84,-142.8C1431.47,-142.8 1130.26,-142.8 1130.26,-142.8 1130.26,-142.8 1130.26,-210.8 1130.26,-210.8 1130.26,-210.8 1128.03,-210.8 1128.03,-210.8"/>
<polygon fill="black" stroke="black" points="1128.03,-207.3 1118.03,-210.8 1128.03,-214.3 1128.03,-207.3"/>
</g>
<!-- SearchClientComponent -->
<g id="node23" class="node">
<title>SearchClientComponent</title>
<polygon fill="#ffffb3" stroke="black" points="1995.64,-160.8 1842.36,-160.8 1842.36,-124.8 1995.64,-124.8 1995.64,-160.8"/>
<text text-anchor="middle" x="1919" y="-138.6" font-family="Times,serif" font-size="14.00">SearchClientComponent</text>
</g>
<!-- SearchClientComponent&#45;&gt;SearchClientModule -->
<g id="edge21" class="edge">
<title>SearchClientComponent&#45;&gt;SearchClientModule</title>
<path fill="none" stroke="black" d="M1919,-160.93C1919,-171.51 1919,-182.8 1919,-182.8 1919,-182.8 1085.85,-182.8 1085.85,-182.8 1085.85,-182.8 1085.85,-183.78 1085.85,-183.78"/>
<polygon fill="black" stroke="black" points="1082.35,-182.59 1085.85,-192.59 1089.35,-182.59 1082.35,-182.59"/>
</g>
<!-- SearchComponent -->
<g id="node24" class="node">
<title>SearchComponent</title>
<polygon fill="#ffffb3" stroke="black" points="1823.92,-160.8 1704.08,-160.8 1704.08,-124.8 1823.92,-124.8 1823.92,-160.8"/>
<text text-anchor="middle" x="1764" y="-138.6" font-family="Times,serif" font-size="14.00">SearchComponent</text>
</g>
<!-- SearchComponent&#45;&gt;SearchClientModule -->
<g id="edge22" class="edge">
<title>SearchComponent&#45;&gt;SearchClientModule</title>
<path fill="none" stroke="black" d="M1764,-161C1764,-166.83 1764,-171.8 1764,-171.8 1764,-171.8 1053.77,-171.8 1053.77,-171.8 1053.77,-171.8 1053.77,-182.67 1053.77,-182.67"/>
<polygon fill="black" stroke="black" points="1050.27,-182.67 1053.77,-192.67 1057.27,-182.67 1050.27,-182.67"/>
</g>
</g>
</svg>
