<?xml version="1.0" encoding="UTF-8" standalone="no"?>
<!DOCTYPE svg PUBLIC "-//W3C//DTD SVG 1.1//EN"
 "http://www.w3.org/Graphics/SVG/1.1/DTD/svg11.dtd">
<!-- Generated by graphviz version 3.0.0 (20220226.1711)
 -->
<!-- Title: dependencies Pages: 1 -->
<svg width="1091pt" height="247pt"
 viewBox="0.00 0.00 1091.00 246.80" xmlns="http://www.w3.org/2000/svg" xmlns:xlink="http://www.w3.org/1999/xlink">
<g id="graph0" class="graph" transform="scale(1 1) rotate(0) translate(4 242.8)">
<title>dependencies</title>
<polygon fill="white" stroke="transparent" points="-4,4 -4,-242.8 1087,-242.8 1087,4 -4,4"/>
<text text-anchor="middle" x="541.5" y="-8.2" font-family="sans-serif" font-size="14.00">dependencies</text>
<g id="clust1" class="cluster">
<title>cluster_AppModule</title>
<polygon fill="none" stroke="black" stroke-dasharray="1,5" points="8,-32.8 8,-230.8 1075,-230.8 1075,-32.8 8,-32.8"/>
</g>
<g id="clust8" class="cluster">
<title>cluster_AppModule_bootstrap</title>
<polygon fill="none" stroke="black" points="464,-170.8 464,-222.8 588,-222.8 588,-170.8 464,-170.8"/>
</g>
<g id="clust2" class="cluster">
<title>cluster_AppModule_declarations</title>
<polygon fill="none" stroke="black" points="669,-40.8 669,-92.8 1067,-92.8 1067,-40.8 669,-40.8"/>
</g>
<g id="clust6" class="cluster">
<title>cluster_AppModule_imports</title>
<polygon fill="none" stroke="black" points="16,-40.8 16,-92.8 661,-92.8 661,-40.8 16,-40.8"/>
</g>
<!-- AppComponent -->
<g id="node1" class="node">
<title>AppComponent</title>
<polygon fill="#ffffb3" stroke="black" points="1058.94,-84.8 953.06,-84.8 953.06,-48.8 1058.94,-48.8 1058.94,-84.8"/>
<text text-anchor="middle" x="1006" y="-62.6" font-family="Times,serif" font-size="14.00">AppComponent</text>
</g>
<!-- AppModule -->
<g id="node4" class="node">
<title>AppModule</title>
<polygon fill="#8dd3c7" stroke="black" points="567.66,-149.8 564.66,-153.8 543.66,-153.8 540.66,-149.8 484.34,-149.8 484.34,-113.8 567.66,-113.8 567.66,-149.8"/>
<text text-anchor="middle" x="526" y="-127.6" font-family="Times,serif" font-size="14.00">AppModule</text>
</g>
<!-- AppComponent&#45;&gt;AppModule -->
<g id="edge1" class="edge">
<title>AppComponent&#45;&gt;AppModule</title>
<path fill="none" stroke="black" d="M1006,-85.09C1006,-107.01 1006,-140.8 1006,-140.8 1006,-140.8 577.76,-140.8 577.76,-140.8"/>
<polygon fill="black" stroke="black" points="577.76,-137.3 567.76,-140.8 577.76,-144.3 577.76,-137.3"/>
</g>
<!-- FooterComponent -->
<g id="node2" class="node">
<title>FooterComponent</title>
<polygon fill="#ffffb3" stroke="black" points="934.88,-84.8 817.12,-84.8 817.12,-48.8 934.88,-48.8 934.88,-84.8"/>
<text text-anchor="middle" x="876" y="-62.6" font-family="Times,serif" font-size="14.00">FooterComponent</text>
</g>
<!-- FooterComponent&#45;&gt;AppModule -->
<g id="edge2" class="edge">
<title>FooterComponent&#45;&gt;AppModule</title>
<path fill="none" stroke="black" d="M876,-84.91C876,-104.14 876,-131.8 876,-131.8 876,-131.8 577.87,-131.8 577.87,-131.8"/>
<polygon fill="black" stroke="black" points="577.87,-128.3 567.87,-131.8 577.87,-135.3 577.87,-128.3"/>
</g>
<!-- HeaderComponent -->
<g id="node3" class="node">
<title>HeaderComponent</title>
<polygon fill="#ffffb3" stroke="black" points="798.75,-84.8 677.25,-84.8 677.25,-48.8 798.75,-48.8 798.75,-84.8"/>
<text text-anchor="middle" x="738" y="-62.6" font-family="Times,serif" font-size="14.00">HeaderComponent</text>
</g>
<!-- HeaderComponent&#45;&gt;AppModule -->
<g id="edge3" class="edge">
<title>HeaderComponent&#45;&gt;AppModule</title>
<path fill="none" stroke="black" d="M738,-84.83C738,-101.2 738,-122.8 738,-122.8 738,-122.8 577.88,-122.8 577.88,-122.8"/>
<polygon fill="black" stroke="black" points="577.88,-119.3 567.88,-122.8 577.88,-126.3 577.88,-119.3"/>
</g>
<!-- AppComponent  -->
<g id="node10" class="node">
<title>AppComponent </title>
<polygon fill="#80b1d3" stroke="black" points="580.44,-214.8 471.56,-214.8 471.56,-178.8 580.44,-178.8 580.44,-214.8"/>
<text text-anchor="middle" x="526" y="-192.6" font-family="Times,serif" font-size="14.00">AppComponent </text>
</g>
<!-- AppModule&#45;&gt;AppComponent  -->
<g id="edge9" class="edge">
<title>AppModule&#45;&gt;AppComponent </title>
<path fill="none" stroke="black" stroke-dasharray="1,5" d="M526,-149.91C526,-149.91 526,-168.79 526,-168.79"/>
<polygon fill="black" stroke="black" points="522.5,-168.79 526,-178.79 529.5,-168.79 522.5,-168.79"/>
</g>
<!-- AppRoutingModule -->
<g id="node5" class="node">
<title>AppRoutingModule</title>
<polygon fill="#8dd3c7" stroke="black" points="653.28,-84.8 650.28,-88.8 629.28,-88.8 626.28,-84.8 524.72,-84.8 524.72,-48.8 653.28,-48.8 653.28,-84.8"/>
<text text-anchor="middle" x="589" y="-62.6" font-family="Times,serif" font-size="14.00">AppRoutingModule</text>
</g>
<!-- AppRoutingModule&#45;&gt;AppModule -->
<g id="edge4" class="edge">
<title>AppRoutingModule&#45;&gt;AppModule</title>
<path fill="none" stroke="black" d="M546.22,-84.91C546.22,-84.91 546.22,-103.79 546.22,-103.79"/>
<polygon fill="black" stroke="black" points="542.72,-103.79 546.22,-113.79 549.72,-103.79 542.72,-103.79"/>
</g>
<!-- AuthModule -->
<g id="node6" class="node">
<title>AuthModule</title>
<polygon fill="#8dd3c7" stroke="black" points="506.55,-84.8 503.55,-88.8 482.55,-88.8 479.55,-84.8 419.45,-84.8 419.45,-48.8 506.55,-48.8 506.55,-84.8"/>
<text text-anchor="middle" x="463" y="-62.6" font-family="Times,serif" font-size="14.00">AuthModule</text>
</g>
<!-- AuthModule&#45;&gt;AppModule -->
<g id="edge5" class="edge">
<title>AuthModule&#45;&gt;AppModule</title>
<path fill="none" stroke="black" d="M495.47,-84.91C495.47,-84.91 495.47,-103.79 495.47,-103.79"/>
<polygon fill="black" stroke="black" points="491.97,-103.79 495.47,-113.79 498.97,-103.79 491.97,-103.79"/>
</g>
<!-- FormUtilsModule -->
<g id="node7" class="node">
<title>FormUtilsModule</title>
<polygon fill="#8dd3c7" stroke="black" points="401.62,-84.8 398.62,-88.8 377.62,-88.8 374.62,-84.8 284.38,-84.8 284.38,-48.8 401.62,-48.8 401.62,-84.8"/>
<text text-anchor="middle" x="343" y="-62.6" font-family="Times,serif" font-size="14.00">FormUtilsModule</text>
</g>
<!-- FormUtilsModule&#45;&gt;AppModule -->
<g id="edge6" class="edge">
<title>FormUtilsModule&#45;&gt;AppModule</title>
<path fill="none" stroke="black" d="M343,-84.83C343,-101.2 343,-122.8 343,-122.8 343,-122.8 474.02,-122.8 474.02,-122.8"/>
<polygon fill="black" stroke="black" points="474.02,-126.3 484.02,-122.8 474.02,-119.3 474.02,-126.3"/>
</g>
<!-- PagesModule -->
<g id="node8" class="node">
<title>PagesModule</title>
<polygon fill="#8dd3c7" stroke="black" points="266.21,-84.8 263.21,-88.8 242.21,-88.8 239.21,-84.8 173.79,-84.8 173.79,-48.8 266.21,-48.8 266.21,-84.8"/>
<text text-anchor="middle" x="220" y="-62.6" font-family="Times,serif" font-size="14.00">PagesModule</text>
</g>
<!-- PagesModule&#45;&gt;AppModule -->
<g id="edge7" class="edge">
<title>PagesModule&#45;&gt;AppModule</title>
<path fill="none" stroke="black" d="M220,-84.91C220,-104.14 220,-131.8 220,-131.8 220,-131.8 474.09,-131.8 474.09,-131.8"/>
<polygon fill="black" stroke="black" points="474.09,-135.3 484.09,-131.8 474.09,-128.3 474.09,-135.3"/>
</g>
<!-- SearchClientModule -->
<g id="node9" class="node">
<title>SearchClientModule</title>
<polygon fill="#8dd3c7" stroke="black" points="155.86,-84.8 152.86,-88.8 131.86,-88.8 128.86,-84.8 24.14,-84.8 24.14,-48.8 155.86,-48.8 155.86,-84.8"/>
<text text-anchor="middle" x="90" y="-62.6" font-family="Times,serif" font-size="14.00">SearchClientModule</text>
</g>
<!-- SearchClientModule&#45;&gt;AppModule -->
<g id="edge8" class="edge">
<title>SearchClientModule&#45;&gt;AppModule</title>
<path fill="none" stroke="black" d="M90,-85.09C90,-107.01 90,-140.8 90,-140.8 90,-140.8 474.19,-140.8 474.19,-140.8"/>
<polygon fill="black" stroke="black" points="474.19,-144.3 484.19,-140.8 474.19,-137.3 474.19,-144.3"/>
</g>
</g>
</svg>
